<svg id="visual" viewBox="0 0 960 540" width="960" height="540" xmlns="http://www.w3.org/2000/svg" xmlns:xlink="http://www.w3.org/1999/xlink" version="1.1"><rect x="0" y="0" width="960" height="540" fill="#fff"></rect><path d="M386 540L236 540L236 450L244 450L244 360L352 360L352 270L229 270L229 180L281 180L281 90L247 90L247 0L960 0L960 90L960 90L960 180L960 180L960 270L960 270L960 360L960 360L960 450L960 450L960 540L960 540Z" fill="#1594cc"></path><path d="M445 540L333 540L333 450L441 450L441 360L381 360L381 270L319 270L319 180L453 180L453 90L411 90L411 0L960 0L960 90L960 90L960 180L960 180L960 270L960 270L960 360L960 360L960 450L960 450L960 540L960 540Z" fill="#108fc8"></path><path d="M437 540L453 540L453 450L405 450L405 360L377 360L377 270L504 270L504 180L475 180L475 90L481 90L481 0L960 0L960 90L960 90L960 180L960 180L960 270L960 270L960 360L960 360L960 450L960 450L960 540L960 540Z" fill="#0a8ac5"></path><path d="M500 540L485 540L485 450L506 450L506 360L455 360L455 270L553 270L553 180L520 180L520 90L500 90L500 0L960 0L960 90L960 90L960 180L960 180L960 270L960 270L960 360L960 360L960 450L960 450L960 540L960 540Z" fill="#0685c1"></path><path d="M584 540L545 540L545 450L594 450L594 360L609 360L609 270L688 270L688 180L586 180L586 90L632 90L632 0L960 0L960 90L960 90L960 180L960 180L960 270L960 270L960 360L960 360L960 450L960 450L960 540L960 540Z" fill="#0380bd"></path><path d="M726 540L688 540L688 450L712 450L712 360L701 360L701 270L681 270L681 180L639 180L639 90L750 90L750 0L960 0L960 90L960 90L960 180L960 180L960 270L960 270L960 360L960 360L960 450L960 450L960 540L960 540Z" fill="#017bb9"></path><path d="M808 540L748 540L748 450L793 450L793 360L737 360L737 270L785 270L785 180L793 180L793 90L784 90L784 0L960 0L960 90L960 90L960 180L960 180L960 270L960 270L960 360L960 360L960 450L960 450L960 540L960 540Z" fill="#0076b5"></path><path d="M848 540L881 540L881 450L867 450L867 360L834 360L834 270L830 270L830 180L815 180L815 90L821 90L821 0L960 0L960 90L960 90L960 180L960 180L960 270L960 270L960 360L960 360L960 450L960 450L960 540L960 540Z" fill="#0071b1"></path></svg>