<svg id="Capa_1" data-name="Capa 1" xmlns="http://www.w3.org/2000/svg" viewBox="0 0 69 52.44"><defs><style>.cls-1{fill:#136aa4;}</style></defs><g id="icon-graduation"><path class="cls-1" d="M11.39,33.94C13,40.43,15,43.26,21.82,46.23s10,6.21,12.68,6.21S40.18,49.6,47,46.63s5-3.88,6.58-10.36L34.5,45.54,11.39,33.94ZM67.31,17,38.59.94a9.39,9.39,0,0,0-8.18,0L1.69,17c-2.25,1.26-2.25,3.32,0,4.58L30.41,37.69a9.32,9.32,0,0,0,8.18,0L57.16,27.3,37,22.58a10.55,10.55,0,0,1-2.52.3c-3.63,0-6.57-1.75-6.57-3.91s2.94-3.9,6.57-3.9c2.81,0,5.21,1.05,6.14,2.54L62,24.6l5.34-3c2.25-1.26,2.25-3.32,0-4.58ZM58.54,47.51c-.22,1.32,4.42,3.51,4.87-.37C65.4,29.64,62,24.6,62,24.6l-4.81,2.7S61.24,31.18,58.54,47.51Z"/></g></svg>