<svg id="Capa_1" data-name="Capa 1" xmlns="http://www.w3.org/2000/svg" viewBox="0 0 100 44.49"><defs><style>.cls-1{fill:#fff;}</style></defs><path class="cls-1" d="M20.46.51V15h2.13v.17h-9V15h2.12V.89L10.63,15.2h-.19c-.28,0-.59-.24-.94-.71a13.13,13.13,0,0,1-1.09-1.85C8,11.88,7.62,11,7.21,10.08S6.37,8.19,5.94,7.25,5.09,5.41,4.67,4.56A17.39,17.39,0,0,0,3.44,2.44V14a1,1,0,0,0,.3.72,1,1,0,0,0,.72.3H5.9v.17H.83V15H2.25a1,1,0,0,0,.72-.3,1,1,0,0,0,.3-.72V2.21L2.9,1.78c-.12-.12-.24-.23-.35-.32a7.48,7.48,0,0,0-1-.56A5.47,5.47,0,0,0,.74.61,5.42,5.42,0,0,0,0,.51V.34H4.12A6.05,6.05,0,0,1,5.29.49,5.61,5.61,0,0,1,6.41.86a5.73,5.73,0,0,1,1.21.73,6.37,6.37,0,0,1,1.1,1.32,17.79,17.79,0,0,1,1,1.67c.3.6.57,1.2.82,1.81l.68,1.71c.2.53.39,1,.56,1.4a4.33,4.33,0,0,0,.44.84l3.55-10h6.86V.51Z"/><path class="cls-1" d="M34.66,15v.17H29.19V13.88L29,14c-.52.29-1.11.59-1.74.88a4.55,4.55,0,0,1-1.89.43H25.3a2.25,2.25,0,0,1-.87-.17,2.2,2.2,0,0,1-.76-.49,2.18,2.18,0,0,1-.54-.78,2.57,2.57,0,0,1-.2-1.06,2.07,2.07,0,0,1,.1-.66,2.46,2.46,0,0,1,.28-.59,2.24,2.24,0,0,1,.4-.48,5.49,5.49,0,0,1,.62-.52c.22-.17.46-.34.71-.5s.49-.31.73-.44c.54-.31,1.11-.61,1.71-.91l1.71-.87V7.28a8,8,0,0,0-.07-1.1,2.91,2.91,0,0,0-.29-1,1.86,1.86,0,0,0-.67-.72A2.1,2.1,0,0,0,27,4.18l-.52,0a1.69,1.69,0,0,0-.5.14,1.22,1.22,0,0,0-.35.27.62.62,0,0,0-.16.41.61.61,0,0,0,.25.51,5.24,5.24,0,0,0,.55.38,3,3,0,0,1,.55.45.93.93,0,0,1,.25.66,1.33,1.33,0,0,1-.46,1.06,1.63,1.63,0,0,1-1.05.38,2,2,0,0,1-.71-.14,2,2,0,0,1-.64-.39,2.12,2.12,0,0,1-.47-.6,1.53,1.53,0,0,1-.18-.74,1.93,1.93,0,0,1,.52-1.4,3.72,3.72,0,0,1,1.29-.83A6.19,6.19,0,0,1,27,4a15.19,15.19,0,0,1,1.54-.1A8.72,8.72,0,0,1,30.12,4a4.92,4.92,0,0,1,1.47.51,3.07,3.07,0,0,1,1.08,1,2.91,2.91,0,0,1,.42,1.62V15Zm-6.24-1,.39-.19.38-.21V8a2.78,2.78,0,0,0-.85.61,3.79,3.79,0,0,0-.65.88,4.77,4.77,0,0,0-.41,1.05,4.3,4.3,0,0,0-.15,1.11V13a1.16,1.16,0,0,0,.32.78.93.93,0,0,0,.7.37A.5.5,0,0,0,28.42,14.07Z"/><path class="cls-1" d="M43.09,8.75c.18.12.39.29.62.48a5.89,5.89,0,0,1,.63.68,3.93,3.93,0,0,1,.49.84,2.5,2.5,0,0,1,.19,1,3.21,3.21,0,0,1-.36,1.51,3.38,3.38,0,0,1-1,1.15,5.08,5.08,0,0,1-1.55.75,7.12,7.12,0,0,1-2,.26,5.08,5.08,0,0,1-1.66-.28,10,10,0,0,1-1.63-.7l-.17,0a1.07,1.07,0,0,0-.55.13,2.65,2.65,0,0,0-.41.27,2.33,2.33,0,0,0-.31.41h-.24v-5h.26a6.78,6.78,0,0,0,.19,1q.1.42.27.9a5.33,5.33,0,0,0,.43.9A7.32,7.32,0,0,0,37,14a2.33,2.33,0,0,0,.73.61,4,4,0,0,0,1.08.42,5.31,5.31,0,0,0,1.17.13c.27,0,.54,0,.82,0A3.47,3.47,0,0,0,41.5,15a2,2,0,0,0,.56-.27.57.57,0,0,0,.22-.49,1.22,1.22,0,0,0-.5-.94,6.93,6.93,0,0,0-1.23-.85c-.48-.28-1-.57-1.58-.87a11.49,11.49,0,0,1-1.57-1c-.32-.26-.61-.5-.86-.73a4.63,4.63,0,0,1-.63-.73,2.7,2.7,0,0,1-.41-.79,3.22,3.22,0,0,1-.14-1,2.82,2.82,0,0,1,.37-1.49,3.15,3.15,0,0,1,.92-1,4,4,0,0,1,1.22-.6A4.37,4.37,0,0,1,39.12,4,7,7,0,0,1,40,4a4.35,4.35,0,0,1,.71.18c.24.09.49.19.76.32s.6.29,1,.47a.37.37,0,0,0,.14,0,1,1,0,0,0,.52-.13,1,1,0,0,0,.35-.29,2.05,2.05,0,0,0,.26-.43H44l.47,4h-.24A3.45,3.45,0,0,0,44,7.62c-.07-.18-.17-.39-.29-.63a7.27,7.27,0,0,0-.49-.75c-.1-.13-.26-.3-.48-.53A3.78,3.78,0,0,0,42,5.12l-.39-.24a4.33,4.33,0,0,0-.57-.28,4.29,4.29,0,0,0-.69-.24,3.19,3.19,0,0,0-.77-.09,4.19,4.19,0,0,0-.48,0,1.85,1.85,0,0,0-.49.09.91.91,0,0,0-.37.22A.47.47,0,0,0,38.1,5a1.43,1.43,0,0,0,.47,1.14,6.18,6.18,0,0,0,1.21.79l1.73.9A14.63,14.63,0,0,1,43.09,8.75Z"/><path class="cls-1" d="M51.11,13.48a2.66,2.66,0,0,0,.56.92,1.75,1.75,0,0,0,.72.49,2.2,2.2,0,0,0,.74.14v.17H50.75A8.81,8.81,0,0,1,49,15.05a2.74,2.74,0,0,1-1.17-.51,1.94,1.94,0,0,1-.63-1A5.06,5.06,0,0,1,47,12V4.39H45.4V4.22h.68a3.59,3.59,0,0,0,1.73-.44,6,6,0,0,0,1.48-1.11,6.1,6.1,0,0,0,1-1.39A2.77,2.77,0,0,0,50.71,0h.19V4.22h1.87v.17H50.9V12A4.32,4.32,0,0,0,51.11,13.48Z"/><path class="cls-1" d="M57.46,9.91a15.9,15.9,0,0,0,.09,1.68,4.47,4.47,0,0,0,.4,1.52,2.78,2.78,0,0,0,.92,1.09,2.91,2.91,0,0,0,1.67.42,3.19,3.19,0,0,0,1.35-.26,3.34,3.34,0,0,0,1-.71,4.58,4.58,0,0,0,.74-1,12.19,12.19,0,0,0,.54-1.22l.21,0A15.51,15.51,0,0,1,63.76,13a4.3,4.3,0,0,1-.93,1.25,4,4,0,0,1-1.42.83,6.39,6.39,0,0,1-2.1.3l-1,0a4.68,4.68,0,0,1-.9-.14,6.37,6.37,0,0,1-1-.35,9.29,9.29,0,0,1-1.19-.68,4.46,4.46,0,0,1-1.52-1.72,6,6,0,0,1-.62-2.82,6.18,6.18,0,0,1,.35-2.23,4.82,4.82,0,0,1,.92-1.57,4.57,4.57,0,0,1,1.28-1,6.6,6.6,0,0,1,1.41-.59A8,8,0,0,1,58.38,4q.63-.06,1-.06a10,10,0,0,1,1.85.17A5.61,5.61,0,0,1,63,4.67a3.65,3.65,0,0,1,1.28,1.16,3.26,3.26,0,0,1,.49,1.88,1.43,1.43,0,0,1-.39,1.06,2.56,2.56,0,0,1-1,.57,4.55,4.55,0,0,1-1.26.23c-.45,0-.88,0-1.27,0H57.46ZM59,4.12a1,1,0,0,0-.83.42,3,3,0,0,0-.46,1,7.67,7.67,0,0,0-.2,1.35c0,.49,0,1,0,1.39V9.42h1.87l.43,0a1.06,1.06,0,0,0,.57-.25,1.08,1.08,0,0,0,.2-.33,2,2,0,0,0,.1-.41,2.58,2.58,0,0,0,0-.36c0-.1,0-.18,0-.22a10.49,10.49,0,0,0-.14-1.87,3.75,3.75,0,0,0-.37-1.12,1.39,1.39,0,0,0-.52-.55,1.26,1.26,0,0,0-.59-.15Z"/><path class="cls-1" d="M73,4.48a3.81,3.81,0,0,1,.68.07,2.07,2.07,0,0,1,.76.31,2,2,0,0,1,.62.68,2.36,2.36,0,0,1,.25,1.17,2.84,2.84,0,0,1-.2,1.1,2.77,2.77,0,0,1-.51.78,2.12,2.12,0,0,1-.68.45,1.87,1.87,0,0,1-.69.15,1.14,1.14,0,0,1-1-.44,2.43,2.43,0,0,1-.29-1.3A2.25,2.25,0,0,1,72,6.87a3.16,3.16,0,0,1,.18-.52c.07-.16.13-.3.19-.42a.68.68,0,0,0,.09-.28c0-.39-.1-.58-.3-.58a.79.79,0,0,0-.68.36l-.19.28A2.32,2.32,0,0,0,71,6.87c0,.56,0,1.22,0,2V15h1.59v.17H65.12V15h1.62V4.39H65.12V4.22c.4,0,.87,0,1.42,0s1.09,0,1.64-.07,1.07-.08,1.55-.14a9,9,0,0,0,1.17-.21V6.11a2.47,2.47,0,0,1,.17-.42,1.76,1.76,0,0,1,.27-.4l.09-.07a2.78,2.78,0,0,1,.82-.59A1.78,1.78,0,0,1,73,4.48Z"/><path class="cls-1" d="M12.63,38.55a6.62,6.62,0,0,0,.65-1.23,7.21,7.21,0,0,0,.35-1.23c.07-.4.11-.77.14-1.12s0-.65,0-.9H14v6.6H.83V40.5H3V26H.83v-.17H9.72V26H7.58V40.5h.59a9.93,9.93,0,0,0,1.21-.07,5.53,5.53,0,0,0,1.2-.29,4.57,4.57,0,0,0,1.11-.59A4.31,4.31,0,0,0,12.63,38.55Z"/><path class="cls-1" d="M19.57,35.39a15.71,15.71,0,0,0,.09,1.67,4.47,4.47,0,0,0,.4,1.52A2.71,2.71,0,0,0,21,39.67a2.83,2.83,0,0,0,1.67.43,3.21,3.21,0,0,0,2.37-1,4.58,4.58,0,0,0,.74-1,11.25,11.25,0,0,0,.54-1.22l.21,0a15.51,15.51,0,0,1-.64,1.57,4.48,4.48,0,0,1-.93,1.26,3.88,3.88,0,0,1-1.42.82,6.39,6.39,0,0,1-2.1.3l-1,0a4,4,0,0,1-.9-.14,5.45,5.45,0,0,1-1-.35,8.22,8.22,0,0,1-1.19-.68,4.46,4.46,0,0,1-1.52-1.72,6,6,0,0,1-.62-2.82,6.22,6.22,0,0,1,.35-2.23,4.82,4.82,0,0,1,.92-1.57,4.76,4.76,0,0,1,1.28-1,6.56,6.56,0,0,1,1.41-.58,7.14,7.14,0,0,1,1.33-.27c.42,0,.77-.06,1.06-.06a9.85,9.85,0,0,1,1.84.17,5.52,5.52,0,0,1,1.73.59A3.75,3.75,0,0,1,26.4,31.3a3.28,3.28,0,0,1,.5,1.88,1.43,1.43,0,0,1-.4,1.06,2.47,2.47,0,0,1-1,.57,5.11,5.11,0,0,1-1.27.24c-.45,0-.88,0-1.27,0H19.57Zm1.53-5.8a1,1,0,0,0-.83.42,3,3,0,0,0-.46,1,7.67,7.67,0,0,0-.2,1.35c0,.49,0,.95,0,1.39V34.9h1.87l.43,0a1,1,0,0,0,.57-.25,1,1,0,0,0,.2-.33,2,2,0,0,0,.1-.4,3.06,3.06,0,0,0,.05-.36c0-.11,0-.18,0-.23a10.37,10.37,0,0,0-.14-1.86,3.73,3.73,0,0,0-.37-1.13,1.39,1.39,0,0,0-.52-.55,1.26,1.26,0,0,0-.59-.15Z"/><path class="cls-1" d="M39.31,40.5v.17H33.84V39.35l-.15.09c-.53.3-1.11.59-1.74.88a4.56,4.56,0,0,1-1.89.44H30a2.36,2.36,0,0,1-.87-.17,2.54,2.54,0,0,1-.76-.49,2.22,2.22,0,0,1-.54-.79,2.54,2.54,0,0,1-.21-1.06,2.08,2.08,0,0,1,.11-.66A2.46,2.46,0,0,1,28,37a2.19,2.19,0,0,1,.4-.48A6.38,6.38,0,0,1,29,36c.23-.17.47-.34.72-.5a7,7,0,0,1,.73-.43c.54-.31,1.1-.62,1.71-.92s1.17-.58,1.71-.87v-.53a10.15,10.15,0,0,0-.07-1.1,2.71,2.71,0,0,0-.3-1,1.76,1.76,0,0,0-.66-.72,2.19,2.19,0,0,0-1.16-.28,3.12,3.12,0,0,0-.52,0,1.68,1.68,0,0,0-.5.13,1.1,1.1,0,0,0-.35.27.59.59,0,0,0-.16.41.61.61,0,0,0,.24.51,5,5,0,0,0,.56.38,3,3,0,0,1,.55.45.92.92,0,0,1,.24.66,1.33,1.33,0,0,1-.45,1.06,1.63,1.63,0,0,1-1.05.38,1.81,1.81,0,0,1-.72-.14,2.07,2.07,0,0,1-.63-.39,2.22,2.22,0,0,1-.47-.59,1.6,1.6,0,0,1-.18-.75,1.91,1.91,0,0,1,.52-1.4A3.78,3.78,0,0,1,30,29.84a7.19,7.19,0,0,1,1.63-.39,14.8,14.8,0,0,1,1.54-.09,8.72,8.72,0,0,1,1.59.15,4.58,4.58,0,0,1,1.46.5,3.19,3.19,0,0,1,1.09,1,3,3,0,0,1,.42,1.63V40.5Zm-6.24-1,.38-.2.39-.21V33.5a2.63,2.63,0,0,0-.85.6,4,4,0,0,0-.65.88,4.42,4.42,0,0,0-.56,2.17v1.31a1.19,1.19,0,0,0,.31.78.93.93,0,0,0,.71.37A.63.63,0,0,0,33.07,39.55Z"/><path class="cls-1" d="M47.15,30a3.75,3.75,0,0,1,.67.08,2.21,2.21,0,0,1,.77.3,2,2,0,0,1,.61.68,2.36,2.36,0,0,1,.26,1.17,2.84,2.84,0,0,1-.2,1.1,2.77,2.77,0,0,1-.51.78,2,2,0,0,1-.68.45,1.87,1.87,0,0,1-.69.15,1.14,1.14,0,0,1-1-.44,2.43,2.43,0,0,1-.29-1.3,2.32,2.32,0,0,1,.08-.58,3.16,3.16,0,0,1,.18-.52l.19-.41a.85.85,0,0,0,.08-.29c0-.38-.1-.57-.29-.57a.79.79,0,0,0-.68.36l-.19.27a2.22,2.22,0,0,0-.29,1.16c0,.56,0,1.22,0,2V40.5h1.59v.17H39.31V40.5h1.62V29.87H39.31V29.7l1.41,0c.55,0,1.1,0,1.65-.08s1.07-.08,1.55-.14a6.56,6.56,0,0,0,1.17-.21v2.34a2.18,2.18,0,0,1,.44-.83l.09-.07a3.11,3.11,0,0,1,.81-.59A1.82,1.82,0,0,1,47.15,30Z"/><path class="cls-1" d="M63.81,40.67H61.94a5.52,5.52,0,0,1-1.75-.24A3.13,3.13,0,0,1,59,39.75a2.52,2.52,0,0,1-.64-1,4.06,4.06,0,0,1-.19-1.23v-5.9a4,4,0,0,0-.09-.85,2.22,2.22,0,0,0-.33-.75.79.79,0,0,0-.33-.2,1.89,1.89,0,0,0-.39,0,.6.6,0,0,0-.36.12,1.4,1.4,0,0,0-.32.28,1.44,1.44,0,0,0-.32.53,5,5,0,0,0-.22.74,5.44,5.44,0,0,0-.14.77,5.57,5.57,0,0,0,0,.64V40.5h1.59v.17H49.73V40.5h1.6V29.87H49.71V29.7l1.45,0c.56,0,1.13,0,1.69-.08s1.1-.08,1.61-.14a6.62,6.62,0,0,0,1.2-.21v1.61a2.71,2.71,0,0,1,.36-.59,2.36,2.36,0,0,1,.51-.47,3.21,3.21,0,0,1,1.07-.61A3.59,3.59,0,0,1,58.8,29a9.48,9.48,0,0,1,1.36.1,3.13,3.13,0,0,1,1.27.47,2.32,2.32,0,0,1,.85,1,3.8,3.8,0,0,1,.18.47,1.73,1.73,0,0,1,.07.5v6.24a5.62,5.62,0,0,0,.29,2,1,1,0,0,0,1,.73Z"/><path class="cls-1" d="M71.68,40.5v.17H64.23V40.5h1.62V29.87H64.23V29.7l1.43,0c.55,0,1.1,0,1.66-.08s1.09-.08,1.58-.14a6.49,6.49,0,0,0,1.19-.21V40.5ZM70.2,26.36a2,2,0,0,0-.52-.52,3.21,3.21,0,0,0-.77-.35,3.59,3.59,0,0,0-1.84,0,3.21,3.21,0,0,0-.77.35,2,2,0,0,0-.52.52,1.17,1.17,0,0,0,0,1.28,1.84,1.84,0,0,0,.52.52,2.87,2.87,0,0,0,.77.35,3.59,3.59,0,0,0,1.84,0,2.87,2.87,0,0,0,.77-.35,1.84,1.84,0,0,0,.52-.52,1.17,1.17,0,0,0,0-1.28Z"/><path class="cls-1" d="M86,40.67H84.08a5.52,5.52,0,0,1-1.75-.24,3.13,3.13,0,0,1-1.16-.68,2.52,2.52,0,0,1-.64-1,4.06,4.06,0,0,1-.19-1.23v-5.9a4,4,0,0,0-.09-.85,2,2,0,0,0-.33-.75.79.79,0,0,0-.33-.2,1.81,1.81,0,0,0-.39,0,.6.6,0,0,0-.36.12,1.4,1.4,0,0,0-.32.28,1.44,1.44,0,0,0-.32.53,5,5,0,0,0-.22.74,5.44,5.44,0,0,0-.14.77,5.57,5.57,0,0,0,0,.64V40.5h1.59v.17H71.87V40.5h1.6V29.87H71.85V29.7l1.45,0c.56,0,1.13,0,1.69-.08s1.1-.08,1.61-.14a6.62,6.62,0,0,0,1.2-.21v1.61a2.71,2.71,0,0,1,.36-.59,2.36,2.36,0,0,1,.51-.47,3.21,3.21,0,0,1,1.07-.61,3.59,3.59,0,0,1,1.2-.19,9.48,9.48,0,0,1,1.36.1,3.13,3.13,0,0,1,1.27.47,2.32,2.32,0,0,1,.85,1,3.8,3.8,0,0,1,.18.47,1.73,1.73,0,0,1,.07.5v6.24a5.62,5.62,0,0,0,.29,2,1,1,0,0,0,1,.73Z"/><path class="cls-1" d="M100,28.34a1,1,0,0,1-.36.79,2.72,2.72,0,0,1-.9.46,11.56,11.56,0,0,1-1.16.29,9.22,9.22,0,0,0-1.15.28l.26.11A3.71,3.71,0,0,1,98,31.42a3,3,0,0,1,.56,1.84,3.22,3.22,0,0,1-.33,1.52,3.18,3.18,0,0,1-.87,1,4.46,4.46,0,0,1-1.21.67,8.48,8.48,0,0,1-1.35.37,8.86,8.86,0,0,1-1.3.16l-1.06,0h-.92a6,6,0,0,0-1,.1,2.51,2.51,0,0,0-.76.27.64.64,0,0,0-.31.56.92.92,0,0,0,.18.54c.12.16.42.24.88.24a6.58,6.58,0,0,0,1.19-.11l1.18-.27c.4-.1.84-.19,1.3-.27A10.4,10.4,0,0,1,95.78,38a5.18,5.18,0,0,1,1.28.14,2.43,2.43,0,0,1,1,.48,2.38,2.38,0,0,1,.66,1A4.28,4.28,0,0,1,99,41.1a2.59,2.59,0,0,1-.55,1.72,3.78,3.78,0,0,1-1.4,1,6.85,6.85,0,0,1-1.87.49,15,15,0,0,1-2,.13c-.54,0-1.13,0-1.76-.05a11.72,11.72,0,0,1-1.76-.23,4.66,4.66,0,0,1-1.37-.52,1,1,0,0,1-.55-.9,1.42,1.42,0,0,1,.27-.88.74.74,0,0,1,.58-.35,2.75,2.75,0,0,1-.84-.44,2.27,2.27,0,0,1-.47-.53,1.8,1.8,0,0,1-.2-.56,3.23,3.23,0,0,1,0-.53,2.05,2.05,0,0,1,.39-1.3,2.86,2.86,0,0,1,1-.79A4.21,4.21,0,0,1,89.62,37c.44-.07.84-.12,1.21-.15a6.31,6.31,0,0,1-1.12-.32,4.85,4.85,0,0,1-1.21-.64,3.45,3.45,0,0,1-1-1.07,3,3,0,0,1-.39-1.58,3,3,0,0,1,.55-1.88,4.07,4.07,0,0,1,1.4-1.16,6.24,6.24,0,0,1,1.86-.6,13.23,13.23,0,0,1,1.94-.16,10.91,10.91,0,0,1,1.61.12,7.47,7.47,0,0,1,1.62.43,9,9,0,0,1,.46-.82,6.57,6.57,0,0,1,.63-.84,3.5,3.5,0,0,1,.78-.66,1.72,1.72,0,0,1,.93-.26l.33,0a1.21,1.21,0,0,1,.35.12.83.83,0,0,1,.28.28A.85.85,0,0,1,100,28.34Zm-6.81,16a5.25,5.25,0,0,0,2.71-.52,1.6,1.6,0,0,0,.83-1.43.85.85,0,0,0-.33-.69,1.68,1.68,0,0,0-1.07-.27,3.16,3.16,0,0,0-.9.12l-.84.25c-.28.1-.58.18-.9.26a4.63,4.63,0,0,1-1.12.12h-.66s-.08,0-.08,0a1.13,1.13,0,0,0-.34.08.52.52,0,0,0-.22.14.33.33,0,0,0-.1.26,1.38,1.38,0,0,0,.71,1.31A5.08,5.08,0,0,0,93.19,44.32Zm.91-7.92a1.76,1.76,0,0,0,.47-1.21c0-.56.06-1.21.06-1.93,0-.35,0-.7,0-1s0-.65-.05-.93a3.54,3.54,0,0,0-.16-.74,1.12,1.12,0,0,0-.31-.49,1.94,1.94,0,0,0-.67-.4,2.87,2.87,0,0,0-.52-.05h-.09a1.68,1.68,0,0,0-.93.23,1.48,1.48,0,0,0-.52.69,3.89,3.89,0,0,0-.23,1.14q-.06.67-.06,1.59c0,.51,0,1,0,1.38a5,5,0,0,0,.15,1.06,1.83,1.83,0,0,0,.34.73,1.16,1.16,0,0,0,.64.36l.19,0,.23,0h.52l.21,0,.21-.07a.75.75,0,0,0,.2-.1A2.92,2.92,0,0,0,94.1,36.4Z"/></svg>